<?xml version="1.0" encoding="utf-8"?>
<svg xmlns="http://www.w3.org/2000/svg" version="1.1" width="1800" height="4000">

<line x1="500" y1="0" x2="500" y2="800" stroke="black" />
<line x1="1300" y1="0" x2="1300" y2="800" stroke="black" />
<text x="890" y="850" fill="black" >Graphe initial :</text>
<line x1="850" y1="1000" x2="950" y2="1000" stroke="LightSalmon" />
<text x="880" y="998" fill="red" >(6;9)</text>
<image href="images/village.png" height="50" width="50" x="925" y="975" />
<line x1="950" y1="900" x2="950" y2="1000" stroke="LightSalmon" />
<text x="930" y="948" fill="red" >(8;4)</text>
<image href="images/village.png" height="50" width="50" x="825" y="975" />
<line x1="950" y1="900" x2="850" y2="1000" stroke="LightSalmon" />
<text x="880" y="948" fill="red" >(3;6)</text>
<image href="images/village.png" height="50" width="50" x="925" y="875" />
<line x1="850" y1="900" x2="850" y2="1000" stroke="LightSalmon" />
<text x="830" y="948" fill="red" >(2;5)</text>
<image href="images/village.png" height="50" width="50" x="825" y="875" />
<line x1="850" y1="900" x2="950" y2="900" stroke="LightSalmon" />
<text x="880" y="898" fill="red" >(8;5)</text>
<line x1="100" y1="1100" x2="1800" y2="1100" stroke="black" />
<text x="825" y="1150" fill="black" >Solutions sur la Frontiere de Pareto :</text>
<text x="350" y="1170" fill="black" >(0;1;2)</text>
<line x1="250" y1="1300" x2="350" y2="1300" stroke="LightSalmon" />
<text x="280" y="1298" fill="red" >(6;9)</text>
<image href="images/village.png" height="50" width="50" x="325" y="1275" />
<line x1="350" y1="1200" x2="350" y2="1300" stroke="LightSalmon" />
<text x="330" y="1248" fill="red" >(8;4)</text>
<image href="images/village.png" height="50" width="50" x="225" y="1275" />
<image href="images/village.png" height="50" width="50" x="325" y="1175" />
<line x1="250" y1="1200" x2="250" y2="1300" stroke="LightSalmon" />
<text x="230" y="1248" fill="red" >(2;5)</text>
<image href="images/village.png" height="50" width="50" x="225" y="1175" />
<text x="950" y="1170" fill="black" >(0;1;2)</text>
<line x1="850" y1="1300" x2="950" y2="1300" stroke="LightSalmon" />
<text x="880" y="1298" fill="red" >(6;9)</text>
<image href="images/village.png" height="50" width="50" x="925" y="1275" />
<image href="images/village.png" height="50" width="50" x="825" y="1275" />
<line x1="950" y1="1200" x2="850" y2="1300" stroke="LightSalmon" />
<text x="880" y="1248" fill="red" >(3;6)</text>
<image href="images/village.png" height="50" width="50" x="925" y="1175" />
<line x1="850" y1="1200" x2="850" y2="1300" stroke="LightSalmon" />
<text x="830" y="1248" fill="red" >(2;5)</text>
<image href="images/village.png" height="50" width="50" x="825" y="1175" />
<text x="1550" y="1170" fill="black" >(0;1;2)</text>
<image href="images/village.png" height="50" width="50" x="1525" y="1275" />
<line x1="1550" y1="1200" x2="1550" y2="1300" stroke="LightSalmon" />
<text x="1530" y="1248" fill="red" >(8;4)</text>
<image href="images/village.png" height="50" width="50" x="1425" y="1275" />
<line x1="1550" y1="1200" x2="1450" y2="1300" stroke="LightSalmon" />
<text x="1480" y="1248" fill="red" >(3;6)</text>
<image href="images/village.png" height="50" width="50" x="1525" y="1175" />
<line x1="1450" y1="1200" x2="1450" y2="1300" stroke="LightSalmon" />
<text x="1430" y="1248" fill="red" >(2;5)</text>
<image href="images/village.png" height="50" width="50" x="1425" y="1175" />
<text x="350" y="1470" fill="black" >(0;1;2)</text>
<line x1="250" y1="1600" x2="350" y2="1600" stroke="LightSalmon" />
<text x="280" y="1598" fill="red" >(6;9)</text>
<image href="images/village.png" height="50" width="50" x="325" y="1575" />
<line x1="350" y1="1500" x2="350" y2="1600" stroke="LightSalmon" />
<text x="330" y="1548" fill="red" >(8;4)</text>
<image href="images/village.png" height="50" width="50" x="225" y="1575" />
<image href="images/village.png" height="50" width="50" x="325" y="1475" />
<image href="images/village.png" height="50" width="50" x="225" y="1475" />
<line x1="250" y1="1500" x2="350" y2="1500" stroke="LightSalmon" />
<text x="280" y="1498" fill="red" >(8;5)</text>
<text x="950" y="1470" fill="black" >(0;1;2)</text>
<line x1="850" y1="1600" x2="950" y2="1600" stroke="LightSalmon" />
<text x="880" y="1598" fill="red" >(6;9)</text>
<image href="images/village.png" height="50" width="50" x="925" y="1575" />
<image href="images/village.png" height="50" width="50" x="825" y="1575" />
<line x1="950" y1="1500" x2="850" y2="1600" stroke="LightSalmon" />
<text x="880" y="1548" fill="red" >(3;6)</text>
<image href="images/village.png" height="50" width="50" x="925" y="1475" />
<image href="images/village.png" height="50" width="50" x="825" y="1475" />
<line x1="850" y1="1500" x2="950" y2="1500" stroke="LightSalmon" />
<text x="880" y="1498" fill="red" >(8;5)</text>
<text x="1550" y="1470" fill="black" >(0;1;2)</text>
<image href="images/village.png" height="50" width="50" x="1525" y="1575" />
<line x1="1550" y1="1500" x2="1550" y2="1600" stroke="LightSalmon" />
<text x="1530" y="1548" fill="red" >(8;4)</text>
<image href="images/village.png" height="50" width="50" x="1425" y="1575" />
<line x1="1550" y1="1500" x2="1450" y2="1600" stroke="LightSalmon" />
<text x="1480" y="1548" fill="red" >(3;6)</text>
<image href="images/village.png" height="50" width="50" x="1525" y="1475" />
<image href="images/village.png" height="50" width="50" x="1425" y="1475" />
<line x1="1450" y1="1500" x2="1550" y2="1500" stroke="LightSalmon" />
<text x="1480" y="1498" fill="red" >(8;5)</text>
<text x="350" y="1770" fill="black" >(0;1;2)</text>
<line x1="250" y1="1900" x2="350" y2="1900" stroke="LightSalmon" />
<text x="280" y="1898" fill="red" >(6;9)</text>
<image href="images/village.png" height="50" width="50" x="325" y="1875" />
<image href="images/village.png" height="50" width="50" x="225" y="1875" />
<image href="images/village.png" height="50" width="50" x="325" y="1775" />
<line x1="250" y1="1800" x2="250" y2="1900" stroke="LightSalmon" />
<text x="230" y="1848" fill="red" >(2;5)</text>
<image href="images/village.png" height="50" width="50" x="225" y="1775" />
<line x1="250" y1="1800" x2="350" y2="1800" stroke="LightSalmon" />
<text x="280" y="1798" fill="red" >(8;5)</text>
<text x="950" y="1770" fill="black" >(0;1;2)</text>
<image href="images/village.png" height="50" width="50" x="925" y="1875" />
<line x1="950" y1="1800" x2="950" y2="1900" stroke="LightSalmon" />
<text x="930" y="1848" fill="red" >(8;4)</text>
<image href="images/village.png" height="50" width="50" x="825" y="1875" />
<image href="images/village.png" height="50" width="50" x="925" y="1775" />
<line x1="850" y1="1800" x2="850" y2="1900" stroke="LightSalmon" />
<text x="830" y="1848" fill="red" >(2;5)</text>
<image href="images/village.png" height="50" width="50" x="825" y="1775" />
<line x1="850" y1="1800" x2="950" y2="1800" stroke="LightSalmon" />
<text x="880" y="1798" fill="red" >(8;5)</text>
<text x="1550" y="1770" fill="black" >(0;1;2)</text>
<line x1="1450" y1="1900" x2="1550" y2="1900" stroke="LightSalmon" />
<text x="1480" y="1898" fill="red" >(6;9)</text>
<image href="images/village.png" height="50" width="50" x="1525" y="1875" />
<line x1="1550" y1="1800" x2="1550" y2="1900" stroke="LightSalmon" />
<text x="1530" y="1848" fill="red" >(8;4)</text>
<image href="images/village.png" height="50" width="50" x="1425" y="1875" />
<line x1="1550" y1="1800" x2="1450" y2="1900" stroke="LightSalmon" />
<text x="1480" y="1848" fill="red" >(3;6)</text>
<image href="images/village.png" height="50" width="50" x="1525" y="1775" />
<line x1="1450" y1="1800" x2="1450" y2="1900" stroke="LightSalmon" />
<text x="1430" y="1848" fill="red" >(2;5)</text>
<image href="images/village.png" height="50" width="50" x="1425" y="1775" />
<text x="350" y="2070" fill="black" >(0;1;2)</text>
<line x1="250" y1="2200" x2="350" y2="2200" stroke="LightSalmon" />
<text x="280" y="2198" fill="red" >(6;9)</text>
<image href="images/village.png" height="50" width="50" x="325" y="2175" />
<line x1="350" y1="2100" x2="350" y2="2200" stroke="LightSalmon" />
<text x="330" y="2148" fill="red" >(8;4)</text>
<image href="images/village.png" height="50" width="50" x="225" y="2175" />
<line x1="350" y1="2100" x2="250" y2="2200" stroke="LightSalmon" />
<text x="280" y="2148" fill="red" >(3;6)</text>
<image href="images/village.png" height="50" width="50" x="325" y="2075" />
<image href="images/village.png" height="50" width="50" x="225" y="2075" />
<line x1="250" y1="2100" x2="350" y2="2100" stroke="LightSalmon" />
<text x="280" y="2098" fill="red" >(8;5)</text>
<text x="950" y="2070" fill="black" >(0;1;2)</text>
<line x1="850" y1="2200" x2="950" y2="2200" stroke="LightSalmon" />
<text x="880" y="2198" fill="red" >(6;9)</text>
<image href="images/village.png" height="50" width="50" x="925" y="2175" />
<line x1="950" y1="2100" x2="950" y2="2200" stroke="LightSalmon" />
<text x="930" y="2148" fill="red" >(8;4)</text>
<image href="images/village.png" height="50" width="50" x="825" y="2175" />
<image href="images/village.png" height="50" width="50" x="925" y="2075" />
<line x1="850" y1="2100" x2="850" y2="2200" stroke="LightSalmon" />
<text x="830" y="2148" fill="red" >(2;5)</text>
<image href="images/village.png" height="50" width="50" x="825" y="2075" />
<line x1="850" y1="2100" x2="950" y2="2100" stroke="LightSalmon" />
<text x="880" y="2098" fill="red" >(8;5)</text>
<text x="1550" y="2070" fill="black" >(0;1;2)</text>
<line x1="1450" y1="2200" x2="1550" y2="2200" stroke="LightSalmon" />
<text x="1480" y="2198" fill="red" >(6;9)</text>
<image href="images/village.png" height="50" width="50" x="1525" y="2175" />
<image href="images/village.png" height="50" width="50" x="1425" y="2175" />
<line x1="1550" y1="2100" x2="1450" y2="2200" stroke="LightSalmon" />
<text x="1480" y="2148" fill="red" >(3;6)</text>
<image href="images/village.png" height="50" width="50" x="1525" y="2075" />
<line x1="1450" y1="2100" x2="1450" y2="2200" stroke="LightSalmon" />
<text x="1430" y="2148" fill="red" >(2;5)</text>
<image href="images/village.png" height="50" width="50" x="1425" y="2075" />
<line x1="1450" y1="2100" x2="1550" y2="2100" stroke="LightSalmon" />
<text x="1480" y="2098" fill="red" >(8;5)</text>
<text x="650" y="2370" fill="black" >(0;1;2)</text>
<image href="images/village.png" height="50" width="50" x="625" y="2475" />
<line x1="650" y1="2400" x2="650" y2="2500" stroke="LightSalmon" />
<text x="630" y="2448" fill="red" >(8;4)</text>
<image href="images/village.png" height="50" width="50" x="525" y="2475" />
<line x1="650" y1="2400" x2="550" y2="2500" stroke="LightSalmon" />
<text x="580" y="2448" fill="red" >(3;6)</text>
<image href="images/village.png" height="50" width="50" x="625" y="2375" />
<line x1="550" y1="2400" x2="550" y2="2500" stroke="LightSalmon" />
<text x="530" y="2448" fill="red" >(2;5)</text>
<image href="images/village.png" height="50" width="50" x="525" y="2375" />
<line x1="550" y1="2400" x2="650" y2="2400" stroke="LightSalmon" />
<text x="580" y="2398" fill="red" >(8;5)</text>
<text x="1250" y="2370" fill="black" >(0;1;2)</text>
<line x1="1150" y1="2500" x2="1250" y2="2500" stroke="LightSalmon" />
<text x="1180" y="2498" fill="red" >(6;9)</text>
<image href="images/village.png" height="50" width="50" x="1225" y="2475" />
<line x1="1250" y1="2400" x2="1250" y2="2500" stroke="LightSalmon" />
<text x="1230" y="2448" fill="red" >(8;4)</text>
<image href="images/village.png" height="50" width="50" x="1125" y="2475" />
<line x1="1250" y1="2400" x2="1150" y2="2500" stroke="LightSalmon" />
<text x="1180" y="2448" fill="red" >(3;6)</text>
<image href="images/village.png" height="50" width="50" x="1225" y="2375" />
<line x1="1150" y1="2400" x2="1150" y2="2500" stroke="LightSalmon" />
<text x="1130" y="2448" fill="red" >(2;5)</text>
<image href="images/village.png" height="50" width="50" x="1125" y="2375" />
<line x1="1150" y1="2400" x2="1250" y2="2400" stroke="LightSalmon" />
<text x="1180" y="2398" fill="red" >(8;5)</text>
<line x1="100" y1="2600" x2="1800" y2="2600" stroke="black" />
<text x="870" y="2650" fill="black" >Arbres issu de Prim :</text>


</svg>
