<?xml version="1.0" encoding="utf-8"?>
<svg xmlns="http://www.w3.org/2000/svg" version="1.1" width="1900" height="12000">

<text x="890" y="850" fill="black" >Graphe initial :</text>
<line x1="953" y1="1140" x2="1053" y2="1140" stroke="LightSalmon" />
<circle cx="1028" cy="1140" r="5" fill="LightSalmon" />
<text x="983" y="1138" fill="red" >(2;7;6)</text>
<line x1="853" y1="1140" x2="953" y2="1140" stroke="LightSalmon" />
<circle cx="928" cy="1140" r="5" fill="LightSalmon" />
<text x="883" y="1138" fill="red" >(5;8;4)</text>
<line x1="753" y1="1140" x2="853" y2="1140" stroke="LightSalmon" />
<circle cx="828" cy="1140" r="5" fill="LightSalmon" />
<text x="783" y="1138" fill="red" >(3;1;7)</text>
<line x1="1003" y1="1055" x2="1053" y2="1140" stroke="LightSalmon" />
<circle cx="1040" cy="1118" r="5" fill="LightSalmon" />
<text x="1008" y="1095" fill="red" >(6;3;5)</text>
<line x1="1003" y1="1055" x2="953" y2="1140" stroke="LightSalmon" />
<circle cx="966" cy="1118" r="5" fill="LightSalmon" />
<text x="958" y="1095" fill="red" >(9;3;1)</text>
<line x1="903" y1="1055" x2="953" y2="1140" stroke="LightSalmon" />
<circle cx="940" cy="1118" r="5" fill="LightSalmon" />
<text x="908" y="1095" fill="red" >(1;8;3)</text>
<line x1="903" y1="1055" x2="853" y2="1140" stroke="LightSalmon" />
<circle cx="866" cy="1118" r="5" fill="LightSalmon" />
<text x="858" y="1095" fill="red" >(4;9;7)</text>
<line x1="803" y1="1055" x2="853" y2="1140" stroke="LightSalmon" />
<circle cx="840" cy="1118" r="5" fill="LightSalmon" />
<text x="808" y="1095" fill="red" >(6;1;6)</text>
<image href="images/village.png" height="50" width="50" x="1028.5" y="1115" />
<line x1="803" y1="1055" x2="753" y2="1140" stroke="LightSalmon" />
<circle cx="766" cy="1118" r="5" fill="LightSalmon" />
<text x="758" y="1095" fill="red" >(9;4;7)</text>
<image href="images/village.png" height="50" width="50" x="928.5" y="1115" />
<line x1="903" y1="1055" x2="1003" y2="1055" stroke="LightSalmon" />
<circle cx="978" cy="1055" r="5" fill="LightSalmon" />
<text x="933" y="1053" fill="red" >(4;5;2)</text>
<image href="images/village.png" height="50" width="50" x="828.5" y="1115" />
<line x1="803" y1="1055" x2="903" y2="1055" stroke="LightSalmon" />
<circle cx="878" cy="1055" r="5" fill="LightSalmon" />
<text x="833" y="1053" fill="red" >(6;3;5)</text>
<image href="images/village.png" height="50" width="50" x="728.5" y="1115" />
<line x1="953" y1="970" x2="1003" y2="1055" stroke="LightSalmon" />
<circle cx="990" cy="1033" r="5" fill="LightSalmon" />
<text x="958" y="1010" fill="red" >(5;7;6)</text>
<image href="images/village.png" height="50" width="50" x="978.5" y="1030" />
<line x1="953" y1="970" x2="903" y2="1055" stroke="LightSalmon" />
<circle cx="916" cy="1033" r="5" fill="LightSalmon" />
<text x="908" y="1010" fill="red" >(5;2;9)</text>
<image href="images/village.png" height="50" width="50" x="878.5" y="1030" />
<line x1="853" y1="970" x2="903" y2="1055" stroke="LightSalmon" />
<circle cx="890" cy="1033" r="5" fill="LightSalmon" />
<text x="858" y="1010" fill="red" >(6;7;4)</text>
<image href="images/village.png" height="50" width="50" x="778.5" y="1030" />
<line x1="853" y1="970" x2="803" y2="1055" stroke="LightSalmon" />
<circle cx="816" cy="1033" r="5" fill="LightSalmon" />
<text x="808" y="1010" fill="red" >(8;4;7)</text>
<image href="images/village.png" height="50" width="50" x="928.5" y="945" />
<line x1="853" y1="970" x2="953" y2="970" stroke="LightSalmon" />
<circle cx="928" cy="970" r="5" fill="LightSalmon" />
<text x="883" y="968" fill="red" >(3;4;4)</text>
<image href="images/village.png" height="50" width="50" x="828.5" y="945" />
<line x1="903" y1="885" x2="953" y2="970" stroke="LightSalmon" />
<circle cx="940" cy="948" r="5" fill="LightSalmon" />
<text x="908" y="925" fill="red" >(2;9;2)</text>
<image href="images/village.png" height="50" width="50" x="878.5" y="860" />
<line x1="903" y1="885" x2="853" y2="970" stroke="LightSalmon" />
<circle cx="866" cy="948" r="5" fill="LightSalmon" />
<text x="858" y="925" fill="red" >(8;6;8)</text>


</svg>
