<?xml version="1.0" encoding="utf-8"?>
<svg xmlns="http://www.w3.org/2000/svg" version="1.1" width="1900" height="12000">

<text x="890" y="850" fill="black" >Graphe initial :</text>
<line x1="1166" y1="1100" x2="1166" y2="1200" stroke="LightSalmon" />
<text x="1146" y="1148" fill="red" >(1;8)</text>
<line x1="1066" y1="1100" x2="1066" y2="1200" stroke="LightSalmon" />
<text x="1046" y="1148" fill="red" >(6;4)</text>
<line x1="966" y1="1100" x2="966" y2="1200" stroke="LightSalmon" />
<text x="946" y="1148" fill="red" >(7;3)</text>
<line x1="866" y1="1100" x2="866" y2="1200" stroke="LightSalmon" />
<text x="846" y="1148" fill="red" >(1;7)</text>
<line x1="1166" y1="1000" x2="1166" y2="1100" stroke="LightSalmon" />
<text x="1146" y="1048" fill="red" >(1;4)</text>
<line x1="1066" y1="1000" x2="1066" y2="1100" stroke="LightSalmon" />
<text x="1046" y="1048" fill="red" >(4;3)</text>
<line x1="966" y1="1000" x2="966" y2="1100" stroke="LightSalmon" />
<text x="946" y="1048" fill="red" >(9;7)</text>
<line x1="866" y1="1000" x2="866" y2="1100" stroke="LightSalmon" />
<text x="846" y="1048" fill="red" >(8;3)</text>
<image href="images/village.png" height="50" width="50" x="1141" y="1175" />
<line x1="1166" y1="900" x2="1166" y2="1000" stroke="LightSalmon" />
<text x="1146" y="948" fill="red" >(6;4)</text>
<image href="images/village.png" height="50" width="50" x="1041" y="1175" />
<line x1="1066" y1="900" x2="1066" y2="1000" stroke="LightSalmon" />
<text x="1046" y="948" fill="red" >(8;8)</text>
<image href="images/village.png" height="50" width="50" x="941" y="1175" />
<line x1="966" y1="900" x2="966" y2="1000" stroke="LightSalmon" />
<text x="946" y="948" fill="red" >(7;2)</text>
<image href="images/village.png" height="50" width="50" x="841" y="1175" />
<line x1="866" y1="900" x2="866" y2="1000" stroke="LightSalmon" />
<text x="846" y="948" fill="red" >(8;9)</text>
<image href="images/village.png" height="50" width="50" x="1141" y="1075" />
<line x1="1066" y1="1200" x2="1166" y2="1200" stroke="LightSalmon" />
<text x="1096" y="1198" fill="red" >(3;5)</text>
<image href="images/village.png" height="50" width="50" x="1041" y="1075" />
<line x1="966" y1="1200" x2="1066" y2="1200" stroke="LightSalmon" />
<text x="996" y="1198" fill="red" >(9;7)</text>
<image href="images/village.png" height="50" width="50" x="941" y="1075" />
<line x1="866" y1="1200" x2="966" y2="1200" stroke="LightSalmon" />
<text x="896" y="1198" fill="red" >(3;1)</text>
<image href="images/village.png" height="50" width="50" x="841" y="1075" />
<line x1="1066" y1="1100" x2="1166" y2="1100" stroke="LightSalmon" />
<text x="1096" y="1098" fill="red" >(8;3)</text>
<image href="images/village.png" height="50" width="50" x="1141" y="975" />
<line x1="966" y1="1100" x2="1066" y2="1100" stroke="LightSalmon" />
<text x="996" y="1098" fill="red" >(1;1)</text>
<image href="images/village.png" height="50" width="50" x="1041" y="975" />
<line x1="866" y1="1100" x2="966" y2="1100" stroke="LightSalmon" />
<text x="896" y="1098" fill="red" >(4;3)</text>
<image href="images/village.png" height="50" width="50" x="941" y="975" />
<line x1="1066" y1="1000" x2="1166" y2="1000" stroke="LightSalmon" />
<text x="1096" y="998" fill="red" >(2;6)</text>
<image href="images/village.png" height="50" width="50" x="841" y="975" />
<line x1="966" y1="1000" x2="1066" y2="1000" stroke="LightSalmon" />
<text x="996" y="998" fill="red" >(9;9)</text>
<image href="images/village.png" height="50" width="50" x="1141" y="875" />
<line x1="866" y1="1000" x2="966" y2="1000" stroke="LightSalmon" />
<text x="896" y="998" fill="red" >(5;6)</text>
<image href="images/village.png" height="50" width="50" x="1041" y="875" />
<line x1="1066" y1="900" x2="1166" y2="900" stroke="LightSalmon" />
<text x="1096" y="898" fill="red" >(8;7)</text>
<image href="images/village.png" height="50" width="50" x="941" y="875" />
<line x1="966" y1="900" x2="1066" y2="900" stroke="LightSalmon" />
<text x="996" y="898" fill="red" >(9;8)</text>
<image href="images/village.png" height="50" width="50" x="841" y="875" />
<line x1="866" y1="900" x2="966" y2="900" stroke="LightSalmon" />
<text x="896" y="898" fill="red" >(6;5)</text>


</svg>
